STARTFONT 2.1
FONT -Adobe-Utopia-Bold-R-Normal--15-140-75-75-P-82-ISO8859-2
SIZE 14 75 75
FONTBOUNDINGBOX 20 15 -2 -3
STARTPROPERTIES 29
FOUNDRY "Adobe"
FAMILY_NAME "Utopia"
WEIGHT_NAME "Bold"
SLANT "R"
SETWIDTH_NAME "Normal"
ADD_STYLE_NAME ""
PIXEL_SIZE 15
POINT_SIZE 140
RESOLUTION_X 75
RESOLUTION_Y 75
SPACING "P"
AVERAGE_WIDTH 82
CHARSET_REGISTRY "ISO8859"
CHARSET_ENCODING "2"
CAP_HEIGHT 10
X_HEIGHT 7
RELATIVE_SETWIDTH 50
RELATIVE_WEIGHT 70
WEIGHT 218
FACE_NAME "Utopia Bold"
COPYRIGHT "Copyright (c) 1989, 1991 Adobe Systems Incorporated.  All rights reserved., Copyright 1996 Cub Soft"
NOTICE "Utopia is a registered trademark of Adobe Systems Incorporated."
DESTINATION 0
FONT_ASCENT 12
FONT_DESCENT 3
DEFAULT_CHAR 32
_ADOBE_PSFONT "Utopia-Bold"
_ADOBE_XFONT "-Adobe-Utopia-Bold-R-Normal--15-140-75-75-P-82-ISO8859-2"
_DEC_DEVICE_FONTNAMES "PS=Utopia-Bold"
ENDPROPERTIES
CHARS 191
STARTCHAR space
ENCODING 32
SWIDTH 210 0
DWIDTH 3 0
BBX 0 0 0 0
BITMAP
ENDCHAR
STARTCHAR exclam
ENCODING 33
SWIDTH 278 0
DWIDTH 4 0
BBX 2 10 1 0
BITMAP
c0
c0
c0
c0
c0
c0
c0
00
c0
c0
ENDCHAR
STARTCHAR quotedbl
ENCODING 34
SWIDTH 473 0
DWIDTH 7 0
BBX 5 5 1 5
BITMAP
d8
d8
d8
90
90
ENDCHAR
STARTCHAR numbersign
ENCODING 35
SWIDTH 560 0
DWIDTH 8 0
BBX 8 9 0 1
BITMAP
36
36
7f
36
6c
6c
fe
6c
6c
ENDCHAR
STARTCHAR dollar
ENCODING 36
SWIDTH 560 0
DWIDTH 8 0
BBX 7 12 0 -1
BITMAP
10
7c
de
d6
f0
fc
7e
1e
d6
f6
7c
10
ENDCHAR
STARTCHAR percent
ENCODING 37
SWIDTH 887 0
DWIDTH 13 0
BBX 11 10 1 0
BITMAP
7080
df80
d900
da00
7400
05c0
0b60
1360
2360
21c0
ENDCHAR
STARTCHAR ampersand
ENCODING 38
SWIDTH 748 0
DWIDTH 11 0
BBX 10 10 0 0
BITMAP
1e00
3300
3300
1a00
3cc0
6cc0
e680
e700
7380
3dc0
ENDCHAR
STARTCHAR apostrophe
ENCODING 39
SWIDTH 252 0
DWIDTH 4 0
BBX 3 4 0 6
BITMAP
60
60
40
80
ENDCHAR
STARTCHAR parenleft
ENCODING 40
SWIDTH 365 0
DWIDTH 5 0
BBX 4 12 0 -2
BITMAP
30
60
60
c0
c0
c0
c0
c0
c0
60
60
30
ENDCHAR
STARTCHAR parenright
ENCODING 41
SWIDTH 365 0
DWIDTH 5 0
BBX 4 12 0 -2
BITMAP
c0
60
60
30
30
30
30
30
30
60
60
c0
ENDCHAR
STARTCHAR asterisk
ENCODING 42
SWIDTH 442 0
DWIDTH 6 0
BBX 5 5 0 5
BITMAP
20
a8
70
a8
20
ENDCHAR
STARTCHAR plus
ENCODING 43
SWIDTH 600 0
DWIDTH 9 0
BBX 8 7 0 0
BITMAP
18
18
18
ff
18
18
18
ENDCHAR
STARTCHAR comma
ENCODING 44
SWIDTH 280 0
DWIDTH 4 0
BBX 3 4 0 -2
BITMAP
60
60
40
80
ENDCHAR
STARTCHAR minus
ENCODING 45
SWIDTH 600 0
DWIDTH 9 0
BBX 8 1 0 3
BITMAP
ff
ENDCHAR
STARTCHAR period
ENCODING 46
SWIDTH 280 0
DWIDTH 4 0
BBX 2 2 1 0
BITMAP
c0
c0
ENDCHAR
STARTCHAR slash
ENCODING 47
SWIDTH 378 0
DWIDTH 5 0
BBX 4 11 0 -1
BITMAP
10
10
10
20
20
20
40
40
40
80
80
ENDCHAR
STARTCHAR zero
ENCODING 48
SWIDTH 560 0
DWIDTH 8 0
BBX 7 10 0 0
BITMAP
38
6c
ee
ee
ee
ee
ee
ee
6c
38
ENDCHAR
STARTCHAR one
ENCODING 49
SWIDTH 560 0
DWIDTH 8 0
BBX 5 10 1 0
BITMAP
70
f0
70
70
70
70
70
70
70
f8
ENDCHAR
STARTCHAR two
ENCODING 50
SWIDTH 560 0
DWIDTH 8 0
BBX 7 10 0 0
BITMAP
7c
ee
ce
0e
1c
38
60
e2
fe
fe
ENDCHAR
STARTCHAR three
ENCODING 51
SWIDTH 560 0
DWIDTH 8 0
BBX 7 10 0 0
BITMAP
7c
ee
ce
0e
3c
0e
0e
ce
ee
7c
ENDCHAR
STARTCHAR four
ENCODING 52
SWIDTH 560 0
DWIDTH 8 0
BBX 7 10 0 0
BITMAP
38
38
30
64
6c
5c
9c
fe
1c
3e
ENDCHAR
STARTCHAR five
ENCODING 53
SWIDTH 560 0
DWIDTH 8 0
BBX 7 10 0 0
BITMAP
fe
fc
c0
fc
9e
0e
0e
ce
ee
7c
ENDCHAR
STARTCHAR six
ENCODING 54
SWIDTH 560 0
DWIDTH 8 0
BBX 7 10 0 0
BITMAP
3c
6e
e6
e0
fc
ee
ee
ee
6e
3c
ENDCHAR
STARTCHAR seven
ENCODING 55
SWIDTH 560 0
DWIDTH 8 0
BBX 7 10 0 0
BITMAP
fe
fe
0c
0c
18
18
38
30
70
70
ENDCHAR
STARTCHAR eight
ENCODING 56
SWIDTH 560 0
DWIDTH 8 0
BBX 7 10 0 0
BITMAP
7c
ee
ee
ee
7c
ee
ee
ee
ee
7c
ENDCHAR
STARTCHAR nine
ENCODING 57
SWIDTH 560 0
DWIDTH 8 0
BBX 7 10 0 0
BITMAP
78
ec
ee
ee
ee
7e
0e
ce
ec
78
ENDCHAR
STARTCHAR colon
ENCODING 58
SWIDTH 280 0
DWIDTH 4 0
BBX 2 7 1 0
BITMAP
c0
c0
00
00
00
c0
c0
ENDCHAR
STARTCHAR semicolon
ENCODING 59
SWIDTH 280 0
DWIDTH 4 0
BBX 3 9 0 -2
BITMAP
60
60
00
00
00
60
60
40
80
ENDCHAR
STARTCHAR less
ENCODING 60
SWIDTH 600 0
DWIDTH 9 0
BBX 8 7 0 0
BITMAP
03
0c
30
c0
30
0c
03
ENDCHAR
STARTCHAR equal
ENCODING 61
SWIDTH 600 0
DWIDTH 9 0
BBX 7 4 1 2
BITMAP
fe
00
00
fe
ENDCHAR
STARTCHAR greater
ENCODING 62
SWIDTH 600 0
DWIDTH 9 0
BBX 8 7 0 0
BITMAP
c0
30
0c
03
0c
30
c0
ENDCHAR
STARTCHAR question
ENCODING 63
SWIDTH 456 0
DWIDTH 7 0
BBX 5 10 1 0
BITMAP
70
d8
d8
10
20
60
70
00
60
60
ENDCHAR
STARTCHAR at
ENCODING 64
SWIDTH 833 0
DWIDTH 13 0
BBX 12 10 0 0
BITMAP
0fc0
3020
6790
cd90
d990
db10
db20
cdc0
6000
1f80
ENDCHAR
STARTCHAR A
ENCODING 65
SWIDTH 644 0
DWIDTH 9 0
BBX 10 10 -1 0
BITMAP
0c00
0c00
1e00
1e00
2700
2700
3f00
4380
4380
e7c0
ENDCHAR
STARTCHAR B
ENCODING 66
SWIDTH 683 0
DWIDTH 10 0
BBX 9 10 0 0
BITMAP
ff00
7380
7380
7380
7f00
7380
7380
7380
7380
ff00
ENDCHAR
STARTCHAR C
ENCODING 67
SWIDTH 689 0
DWIDTH 10 0
BBX 9 10 0 0
BITMAP
1f00
7180
6080
e000
e000
e000
e000
6080
7180
1f00
ENDCHAR
STARTCHAR D
ENCODING 68
SWIDTH 777 0
DWIDTH 11 0
BBX 10 10 0 0
BITMAP
fe00
7380
7180
71c0
71c0
71c0
71c0
7180
7380
fe00
ENDCHAR
STARTCHAR E
ENCODING 69
SWIDTH 629 0
DWIDTH 9 0
BBX 8 10 0 0
BITMAP
ff
71
70
72
7e
72
70
71
71
ff
ENDCHAR
STARTCHAR F
ENCODING 70
SWIDTH 593 0
DWIDTH 9 0
BBX 8 10 0 0
BITMAP
ff
71
70
72
7e
72
70
70
70
f8
ENDCHAR
STARTCHAR G
ENCODING 71
SWIDTH 726 0
DWIDTH 10 0
BBX 10 10 0 0
BITMAP
1f00
7180
6080
e000
e000
e000
e7c0
6380
7380
1f00
ENDCHAR
STARTCHAR H
ENCODING 72
SWIDTH 807 0
DWIDTH 12 0
BBX 11 10 0 0
BITMAP
fbe0
71c0
71c0
71c0
7fc0
71c0
71c0
71c0
71c0
fbe0
ENDCHAR
STARTCHAR I
ENCODING 73
SWIDTH 384 0
DWIDTH 6 0
BBX 5 10 0 0
BITMAP
f8
70
70
70
70
70
70
70
70
f8
ENDCHAR
STARTCHAR J
ENCODING 74
SWIDTH 386 0
DWIDTH 6 0
BBX 5 12 0 -2
BITMAP
f8
70
70
70
70
70
70
70
70
70
60
c0
ENDCHAR
STARTCHAR K
ENCODING 75
SWIDTH 707 0
DWIDTH 10 0
BBX 10 10 0 0
BITMAP
fbc0
7180
7300
7600
7c00
7e00
7700
7300
7380
f9c0
ENDCHAR
STARTCHAR L
ENCODING 76
SWIDTH 585 0
DWIDTH 9 0
BBX 8 10 0 0
BITMAP
f8
70
70
70
70
70
70
71
71
ff
ENDCHAR
STARTCHAR M
ENCODING 77
SWIDTH 918 0
DWIDTH 13 0
BBX 13 10 0 0
BITMAP
f078
7070
78f0
78f0
5d70
5d70
4e70
4e70
4470
e0f8
ENDCHAR
STARTCHAR N
ENCODING 78
SWIDTH 739 0
DWIDTH 11 0
BBX 10 10 0 0
BITMAP
f1c0
7880
7880
5c80
5c80
4e80
4e80
4780
4780
e380
ENDCHAR
STARTCHAR O
ENCODING 79
SWIDTH 768 0
DWIDTH 11 0
BBX 10 10 0 0
BITMAP
1e00
7380
6180
e1c0
e1c0
e1c0
e1c0
6180
7380
1e00
ENDCHAR
STARTCHAR P
ENCODING 80
SWIDTH 650 0
DWIDTH 9 0
BBX 9 10 0 0
BITMAP
ff00
7380
7380
7380
7380
7f00
7000
7000
7000
f800
ENDCHAR
STARTCHAR Q
ENCODING 81
SWIDTH 768 0
DWIDTH 11 0
BBX 10 13 0 -3
BITMAP
1e00
7380
6180
e1c0
e1c0
e1c0
e1c0
6180
7380
1e00
0600
0700
03c0
ENDCHAR
STARTCHAR R
ENCODING 82
SWIDTH 684 0
DWIDTH 10 0
BBX 10 10 0 0
BITMAP
ff00
7380
7380
7300
7e00
7700
7700
7380
7380
fbc0
ENDCHAR
STARTCHAR S
ENCODING 83
SWIDTH 561 0
DWIDTH 8 0
BBX 7 10 0 0
BITMAP
7c
e6
e2
f0
7c
1e
0e
8e
ce
7c
ENDCHAR
STARTCHAR T
ENCODING 84
SWIDTH 624 0
DWIDTH 9 0
BBX 9 10 0 0
BITMAP
ff80
9c80
9c80
1c00
1c00
1c00
1c00
1c00
1c00
3e00
ENDCHAR
STARTCHAR U
ENCODING 85
SWIDTH 786 0
DWIDTH 12 0
BBX 11 10 0 0
BITMAP
fbe0
71c0
71c0
71c0
71c0
71c0
71c0
71c0
3180
1f00
ENDCHAR
STARTCHAR V
ENCODING 86
SWIDTH 645 0
DWIDTH 9 0
BBX 10 10 -1 0
BITMAP
f9c0
7080
7080
3900
3900
3900
1e00
1e00
0c00
0c00
ENDCHAR
STARTCHAR W
ENCODING 87
SWIDTH 933 0
DWIDTH 14 0
BBX 15 10 -1 0
BITMAP
f9ce
71c4
71c4
3ae4
3ae8
3ae8
3ae8
1c70
1c70
1c70
ENDCHAR
STARTCHAR X
ENCODING 88
SWIDTH 634 0
DWIDTH 9 0
BBX 9 10 0 0
BITMAP
fb80
7100
3a00
3a00
1c00
1c00
2e00
2e00
4700
ef80
ENDCHAR
STARTCHAR Y
ENCODING 89
SWIDTH 617 0
DWIDTH 9 0
BBX 9 10 0 0
BITMAP
fb80
7100
7100
3a00
3a00
1c00
1c00
1c00
1c00
3e00
ENDCHAR
STARTCHAR Z
ENCODING 90
SWIDTH 614 0
DWIDTH 9 0
BBX 8 10 0 0
BITMAP
ff
87
8e
1c
1c
38
38
71
e1
ff
ENDCHAR
STARTCHAR bracketleft
ENCODING 91
SWIDTH 335 0
DWIDTH 5 0
BBX 3 12 1 -2
BITMAP
e0
c0
c0
c0
c0
c0
c0
c0
c0
c0
c0
e0
ENDCHAR
STARTCHAR backslash
ENCODING 92
SWIDTH 379 0
DWIDTH 5 0
BBX 4 11 0 -1
BITMAP
80
80
80
40
40
40
20
20
20
10
10
ENDCHAR
STARTCHAR bracketright
ENCODING 93
SWIDTH 335 0
DWIDTH 5 0
BBX 3 12 0 -2
BITMAP
e0
60
60
60
60
60
60
60
60
60
60
e0
ENDCHAR
STARTCHAR asciicircum
ENCODING 94
SWIDTH 600 0
DWIDTH 9 0
BBX 7 8 1 2
BITMAP
10
10
28
28
44
44
82
82
ENDCHAR
STARTCHAR underscore
ENCODING 95
SWIDTH 500 0
DWIDTH 7 0
BBX 7 1 0 -2
BITMAP
fe
ENDCHAR
STARTCHAR grave
ENCODING 96
SWIDTH 430 0
DWIDTH 6 0
BBX 3 2 1 8
BITMAP
c0
60
ENDCHAR
STARTCHAR a
ENCODING 97
SWIDTH 544 0
DWIDTH 8 0
BBX 7 7 1 0
BITMAP
78
dc
1c
7c
dc
dc
7e
ENDCHAR
STARTCHAR b
ENCODING 98
SWIDTH 605 0
DWIDTH 9 0
BBX 9 11 0 0
BITMAP
f000
7000
7000
7000
7600
7b00
7380
7380
7380
7300
7e00
ENDCHAR
STARTCHAR c
ENCODING 99
SWIDTH 494 0
DWIDTH 7 0
BBX 6 7 0 0
BITMAP
3c
6c
e4
e0
e0
64
3c
ENDCHAR
STARTCHAR d
ENCODING 100
SWIDTH 605 0
DWIDTH 9 0
BBX 9 11 0 0
BITMAP
0f00
0700
0700
0700
3700
6f00
e700
e700
e700
6700
3f80
ENDCHAR
STARTCHAR e
ENCODING 101
SWIDTH 519 0
DWIDTH 7 0
BBX 6 7 0 0
BITMAP
38
6c
fc
e0
e0
64
3c
ENDCHAR
STARTCHAR f
ENCODING 102
SWIDTH 342 0
DWIDTH 5 0
BBX 6 11 0 0
BITMAP
38
6c
6c
70
f8
70
70
70
70
70
f8
ENDCHAR
STARTCHAR g
ENCODING 103
SWIDTH 533 0
DWIDTH 8 0
BBX 8 10 0 -3
BITMAP
7f
ee
ee
ec
78
30
7e
cf
e7
7e
ENDCHAR
STARTCHAR h
ENCODING 104
SWIDTH 631 0
DWIDTH 10 0
BBX 10 11 0 0
BITMAP
f000
7000
7000
7000
7700
7b80
7380
7380
7380
7380
fbc0
ENDCHAR
STARTCHAR i
ENCODING 105
SWIDTH 316 0
DWIDTH 5 0
BBX 5 11 0 0
BITMAP
60
f0
60
00
f0
70
70
70
70
70
f8
ENDCHAR
STARTCHAR j
ENCODING 106
SWIDTH 316 0
DWIDTH 5 0
BBX 4 14 0 -3
BITMAP
60
f0
60
00
f0
70
70
70
70
70
70
70
70
e0
ENDCHAR
STARTCHAR k
ENCODING 107
SWIDTH 582 0
DWIDTH 9 0
BBX 9 11 0 0
BITMAP
f000
7000
7000
7000
7700
7600
7c00
7c00
7e00
7700
f380
ENDCHAR
STARTCHAR l
ENCODING 108
SWIDTH 309 0
DWIDTH 5 0
BBX 5 11 0 0
BITMAP
f0
70
70
70
70
70
70
70
70
70
f8
ENDCHAR
STARTCHAR m
ENCODING 109
SWIDTH 948 0
DWIDTH 15 0
BBX 15 7 0 0
BITMAP
f738
7bdc
739c
739c
739c
739c
fbde
ENDCHAR
STARTCHAR n
ENCODING 110
SWIDTH 638 0
DWIDTH 10 0
BBX 10 7 0 0
BITMAP
f700
7b80
7380
7380
7380
7380
fbc0
ENDCHAR
STARTCHAR o
ENCODING 111
SWIDTH 585 0
DWIDTH 9 0
BBX 8 7 0 0
BITMAP
3c
66
e7
e7
e7
66
3c
ENDCHAR
STARTCHAR p
ENCODING 112
SWIDTH 615 0
DWIDTH 9 0
BBX 9 10 0 -3
BITMAP
f600
7b00
7380
7380
7380
7300
7e00
7000
7000
f800
ENDCHAR
STARTCHAR q
ENCODING 113
SWIDTH 597 0
DWIDTH 9 0
BBX 9 11 0 -3
BITMAP
0100
3b00
6700
e700
e700
e700
6700
3f00
0700
0700
0f80
ENDCHAR
STARTCHAR r
ENCODING 114
SWIDTH 440 0
DWIDTH 6 0
BBX 6 7 0 0
BITMAP
ec
7c
70
70
70
70
f8
ENDCHAR
STARTCHAR s
ENCODING 115
SWIDTH 446 0
DWIDTH 7 0
BBX 6 7 0 0
BITMAP
7c
e4
f0
78
3c
9c
f8
ENDCHAR
STARTCHAR t
ENCODING 116
SWIDTH 370 0
DWIDTH 5 0
BBX 5 9 0 0
BITMAP
30
70
f8
70
70
70
70
70
38
ENDCHAR
STARTCHAR u
ENCODING 117
SWIDTH 629 0
DWIDTH 10 0
BBX 10 7 0 0
BITMAP
f780
7380
7380
7380
7380
7780
3bc0
ENDCHAR
STARTCHAR v
ENCODING 118
SWIDTH 520 0
DWIDTH 7 0
BBX 8 7 -1 0
BITMAP
f7
72
72
3c
3c
18
18
ENDCHAR
STARTCHAR w
ENCODING 119
SWIDTH 774 0
DWIDTH 11 0
BBX 12 7 -1 0
BITMAP
f370
7320
77a0
77a0
39c0
39c0
39c0
ENDCHAR
STARTCHAR x
ENCODING 120
SWIDTH 522 0
DWIDTH 8 0
BBX 8 7 0 0
BITMAP
f7
72
3c
3c
3c
4e
ef
ENDCHAR
STARTCHAR y
ENCODING 121
SWIDTH 524 0
DWIDTH 8 0
BBX 8 10 0 -3
BITMAP
f7
72
72
3c
3c
18
18
10
f0
60
ENDCHAR
STARTCHAR z
ENCODING 122
SWIDTH 483 0
DWIDTH 7 0
BBX 7 7 0 0
BITMAP
fe
dc
9c
38
72
76
fe
ENDCHAR
STARTCHAR braceleft
ENCODING 123
SWIDTH 365 0
DWIDTH 5 0
BBX 4 12 0 -2
BITMAP
30
60
60
60
60
c0
60
60
60
60
60
30
ENDCHAR
STARTCHAR bar
ENCODING 124
SWIDTH 284 0
DWIDTH 4 0
BBX 2 10 1 0
BITMAP
c0
c0
c0
c0
c0
c0
c0
c0
c0
c0
ENDCHAR
STARTCHAR braceright
ENCODING 125
SWIDTH 365 0
DWIDTH 5 0
BBX 4 12 0 -2
BITMAP
c0
60
60
60
60
30
60
60
60
60
60
c0
ENDCHAR
STARTCHAR asciitilde
ENCODING 126
SWIDTH 600 0
DWIDTH 8 0
BBX 8 3 0 3
BITMAP
31
7e
8c
ENDCHAR
STARTCHAR nobreakspace
ENCODING 160
SWIDTH 210 0
DWIDTH 3 0
BBX 0 0 0 0
BITMAP
ENDCHAR
STARTCHAR Aogonek
ENCODING 161
SWIDTH 644 0
DWIDTH 9 0
BBX 10 13 -1 -3
BITMAP
0c00
0c00
1e00
1e00
2700
2700
3f00
4380
4380
e7c0
0800
1000
1c00
ENDCHAR
STARTCHAR breve
ENCODING 162
SWIDTH 430 0
DWIDTH 6 0
BBX 5 2 0 8
BITMAP
88
70
ENDCHAR
STARTCHAR Lstroke
ENCODING 163
SWIDTH 591 0
DWIDTH 9 0
BBX 8 10 0 0
BITMAP
f8
70
74
78
70
70
f0
71
71
ff
ENDCHAR
STARTCHAR currency
ENCODING 164
SWIDTH 560 0
DWIDTH 8 0
BBX 7 9 0 1
BITMAP
c6
7c
c6
82
82
82
c6
7c
c6
ENDCHAR
STARTCHAR Lcaron
ENCODING 165
SWIDTH 685 0
DWIDTH 10 0
BBX 9 11 0 0
BITMAP
0180
f980
7100
7200
7000
7000
7000
7000
7100
7100
ff00
ENDCHAR
STARTCHAR Sacute
ENCODING 166
SWIDTH 561 0
DWIDTH 8 0
BBX 7 13 0 0
BITMAP
0c
18
00
7c
e6
e2
f0
7c
1e
0e
8e
ce
7c
ENDCHAR
STARTCHAR section
ENCODING 167
SWIDTH 566 0
DWIDTH 8 0
BBX 7 12 0 -2
BITMAP
38
6c
60
70
bc
ce
e6
7a
1c
0c
6c
38
ENDCHAR
STARTCHAR diaeresis
ENCODING 168
SWIDTH 430 0
DWIDTH 6 0
BBX 5 2 1 8
BITMAP
d8
d8
ENDCHAR
STARTCHAR Scaron
ENCODING 169
SWIDTH 561 0
DWIDTH 8 0
BBX 7 13 0 0
BITMAP
34
18
00
7c
e6
e2
f0
7c
1e
0e
8e
ce
7c
ENDCHAR
STARTCHAR Scedilla
ENCODING 170
SWIDTH 561 0
DWIDTH 8 0
BBX 7 13 0 -3
BITMAP
7c
e6
e2
f0
7c
1e
0e
8e
ce
7c
10
08
38
ENDCHAR
STARTCHAR Tcaron
ENCODING 171
SWIDTH 624 0
DWIDTH 9 0
BBX 9 13 0 0
BITMAP
1a00
0c00
0000
ff80
9c80
9c80
1c00
1c00
1c00
1c00
1c00
1c00
3e00
ENDCHAR
STARTCHAR Zacute
ENCODING 172
SWIDTH 614 0
DWIDTH 9 0
BBX 8 13 0 0
BITMAP
0c
18
00
ff
87
8e
1c
1c
38
38
71
e1
ff
ENDCHAR
STARTCHAR hyphen
ENCODING 173
SWIDTH 392 0
DWIDTH 6 0
BBX 4 1 1 3
BITMAP
f0
ENDCHAR
STARTCHAR Zcaron
ENCODING 174
SWIDTH 614 0
DWIDTH 9 0
BBX 8 13 0 0
BITMAP
34
18
00
ff
87
8e
1c
1c
38
38
71
e1
ff
ENDCHAR
STARTCHAR Zabovedot
ENCODING 175
SWIDTH 614 0
DWIDTH 9 0
BBX 8 13 0 0
BITMAP
18
18
00
ff
87
8e
1c
1c
38
38
71
e1
ff
ENDCHAR
STARTCHAR degree
ENCODING 176
SWIDTH 396 0
DWIDTH 6 0
BBX 4 4 1 6
BITMAP
60
90
90
60
ENDCHAR
STARTCHAR aogonek
ENCODING 177
SWIDTH 544 0
DWIDTH 8 0
BBX 7 10 1 -3
BITMAP
78
dc
1c
7c
dc
dc
7e
10
20
38
ENDCHAR
STARTCHAR ogonek
ENCODING 178
SWIDTH 430 0
DWIDTH 6 0
BBX 3 3 1 -3
BITMAP
40
80
e0
ENDCHAR
STARTCHAR lstroke
ENCODING 179
SWIDTH 321 0
DWIDTH 5 0
BBX 5 11 0 0
BITMAP
f0
70
70
70
78
70
f0
70
70
70
f8
ENDCHAR
STARTCHAR acute
ENCODING 180
SWIDTH 430 0
DWIDTH 6 0
BBX 3 2 1 8
BITMAP
60
c0
ENDCHAR
STARTCHAR lcaron
ENCODING 181
SWIDTH 548 0
DWIDTH 8 0
BBX 8 12 0 0
BITMAP
03
f3
72
74
70
70
70
70
70
70
70
f8
ENDCHAR
STARTCHAR sacute
ENCODING 182
SWIDTH 446 0
DWIDTH 7 0
BBX 6 10 0 0
BITMAP
18
30
00
7c
e4
f0
78
3c
9c
f8
ENDCHAR
STARTCHAR caron
ENCODING 183
SWIDTH 430 0
DWIDTH 6 0
BBX 4 2 1 8
BITMAP
d0
60
ENDCHAR
STARTCHAR cedilla
ENCODING 184
SWIDTH 430 0
DWIDTH 6 0
BBX 3 3 1 -3
BITMAP
40
20
e0
ENDCHAR
STARTCHAR scaron
ENCODING 185
SWIDTH 446 0
DWIDTH 7 0
BBX 6 10 0 0
BITMAP
68
30
00
7c
e4
f0
78
3c
9c
f8
ENDCHAR
STARTCHAR scedilla
ENCODING 186
SWIDTH 446 0
DWIDTH 7 0
BBX 6 10 0 -3
BITMAP
7c
e4
f0
78
3c
9c
f8
20
10
70
ENDCHAR
STARTCHAR tcaron
ENCODING 187
SWIDTH 548 0
DWIDTH 8 0
BBX 8 12 0 0
BITMAP
03
03
02
34
70
f8
70
70
70
70
70
38
ENDCHAR
STARTCHAR zacute
ENCODING 188
SWIDTH 483 0
DWIDTH 7 0
BBX 7 10 0 0
BITMAP
0c
18
00
fe
dc
9c
38
72
76
fe
ENDCHAR
STARTCHAR doubleacute
ENCODING 189
SWIDTH 430 0
DWIDTH 6 0
BBX 6 2 0 8
BITMAP
6c
d8
ENDCHAR
STARTCHAR zcaron
ENCODING 190
SWIDTH 483 0
DWIDTH 7 0
BBX 7 10 0 0
BITMAP
34
18
00
fe
dc
9c
38
72
76
fe
ENDCHAR
STARTCHAR zabovedot
ENCODING 191
SWIDTH 483 0
DWIDTH 7 0
BBX 7 10 0 0
BITMAP
18
18
00
fe
dc
9c
38
72
76
fe
ENDCHAR
STARTCHAR Racute
ENCODING 192
SWIDTH 684 0
DWIDTH 10 0
BBX 10 13 0 0
BITMAP
0600
0c00
0000
ff00
7380
7380
7300
7e00
7700
7700
7380
7380
fbc0
ENDCHAR
STARTCHAR Aacute
ENCODING 193
SWIDTH 644 0
DWIDTH 9 0
BBX 10 12 -1 0
BITMAP
0600
0c00
0000
0c00
0c00
1e00
1e00
2700
3f00
4380
4380
e7c0
ENDCHAR
STARTCHAR Acircumflex
ENCODING 194
SWIDTH 644 0
DWIDTH 9 0
BBX 10 12 -1 0
BITMAP
0c00
1600
0000
0c00
0c00
1e00
1e00
2700
3f00
4380
4380
e7c0
ENDCHAR
STARTCHAR Abreve
ENCODING 195
SWIDTH 644 0
DWIDTH 9 0
BBX 10 13 -1 0
BITMAP
2200
1c00
0000
0c00
0c00
1e00
1e00
2700
2700
3f00
4380
4380
e7c0
ENDCHAR
STARTCHAR Adiaeresis
ENCODING 196
SWIDTH 644 0
DWIDTH 9 0
BBX 10 12 -1 0
BITMAP
3600
3600
0000
0c00
0c00
1e00
1e00
2700
3f00
4380
4380
e7c0
ENDCHAR
STARTCHAR Lacute
ENCODING 197
SWIDTH 585 0
DWIDTH 9 0
BBX 8 13 0 0
BITMAP
18
30
00
f8
70
70
70
70
70
70
71
71
ff
ENDCHAR
STARTCHAR Cacute
ENCODING 198
SWIDTH 689 0
DWIDTH 10 0
BBX 9 13 0 0
BITMAP
0600
0c00
0000
1f00
7180
6080
e000
e000
e000
e000
6080
7180
1f00
ENDCHAR
STARTCHAR Ccedilla
ENCODING 199
SWIDTH 689 0
DWIDTH 10 0
BBX 9 13 0 -3
BITMAP
1f00
7180
6080
e000
e000
e000
e000
6080
7180
1f00
0800
0400
1c00
ENDCHAR
STARTCHAR Ccaron
ENCODING 200
SWIDTH 689 0
DWIDTH 10 0
BBX 9 13 0 0
BITMAP
1a00
0c00
0000
1f00
7180
6080
e000
e000
e000
e000
6080
7180
1f00
ENDCHAR
STARTCHAR Eacute
ENCODING 201
SWIDTH 629 0
DWIDTH 9 0
BBX 8 12 0 0
BITMAP
0c
18
00
ff
71
70
72
7e
72
70
71
ff
ENDCHAR
STARTCHAR Eogonek
ENCODING 202
SWIDTH 629 0
DWIDTH 9 0
BBX 8 13 0 -3
BITMAP
ff
71
70
72
7e
72
70
71
71
ff
10
20
38
ENDCHAR
STARTCHAR Ediaeresis
ENCODING 203
SWIDTH 629 0
DWIDTH 9 0
BBX 8 12 0 0
BITMAP
6c
6c
00
ff
71
70
72
7e
72
70
71
ff
ENDCHAR
STARTCHAR Ecaron
ENCODING 204
SWIDTH 629 0
DWIDTH 9 0
BBX 8 13 0 0
BITMAP
34
18
00
ff
71
70
72
7e
72
70
71
71
ff
ENDCHAR
STARTCHAR Iacute
ENCODING 205
SWIDTH 384 0
DWIDTH 6 0
BBX 5 12 0 0
BITMAP
30
60
00
f8
70
70
70
70
70
70
70
f8
ENDCHAR
STARTCHAR Icircumflex
ENCODING 206
SWIDTH 384 0
DWIDTH 6 0
BBX 5 12 0 0
BITMAP
60
b0
00
f8
70
70
70
70
70
70
70
f8
ENDCHAR
STARTCHAR Dcaron
ENCODING 207
SWIDTH 777 0
DWIDTH 11 0
BBX 10 13 0 0
BITMAP
1a00
0c00
0000
fe00
7380
7180
71c0
71c0
71c0
71c0
7180
7380
fe00
ENDCHAR
STARTCHAR Dstroke
ENCODING 208
SWIDTH 783 0
DWIDTH 11 0
BBX 10 10 0 0
BITMAP
fe00
7380
7180
71c0
fdc0
71c0
71c0
7180
7380
fe00
ENDCHAR
STARTCHAR Nacute
ENCODING 209
SWIDTH 739 0
DWIDTH 11 0
BBX 10 13 0 0
BITMAP
0600
0c00
0000
f1c0
7880
7880
5c80
5c80
4e80
4e80
4780
4780
e380
ENDCHAR
STARTCHAR Ncaron
ENCODING 210
SWIDTH 739 0
DWIDTH 11 0
BBX 10 13 0 0
BITMAP
1a00
0c00
0000
f1c0
7880
7880
5c80
5c80
4e80
4e80
4780
4780
e380
ENDCHAR
STARTCHAR Oacute
ENCODING 211
SWIDTH 768 0
DWIDTH 11 0
BBX 10 12 0 0
BITMAP
0600
0c00
0000
1e00
7380
6180
e1c0
e1c0
e1c0
6180
7380
1e00
ENDCHAR
STARTCHAR Ocircumflex
ENCODING 212
SWIDTH 768 0
DWIDTH 11 0
BBX 10 12 0 0
BITMAP
0c00
1600
0000
1e00
7380
6180
e1c0
e1c0
e1c0
6180
7380
1e00
ENDCHAR
STARTCHAR Odoubleacute
ENCODING 213
SWIDTH 768 0
DWIDTH 11 0
BBX 10 13 0 0
BITMAP
1b00
3600
0000
1e00
7380
6180
e1c0
e1c0
e1c0
e1c0
6180
7380
1e00
ENDCHAR
STARTCHAR Odiaeresis
ENCODING 214
SWIDTH 768 0
DWIDTH 11 0
BBX 10 12 0 0
BITMAP
3600
3600
0000
1e00
7380
6180
e1c0
e1c0
e1c0
6180
7380
1e00
ENDCHAR
STARTCHAR multiply
ENCODING 215
SWIDTH 600 0
DWIDTH 9 0
BBX 8 7 0 0
BITMAP
c3
66
3c
18
3c
66
c3
ENDCHAR
STARTCHAR Rcaron
ENCODING 216
SWIDTH 684 0
DWIDTH 10 0
BBX 10 13 0 0
BITMAP
1a00
0c00
0000
ff00
7380
7380
7300
7e00
7700
7700
7380
7380
fbc0
ENDCHAR
STARTCHAR Uring
ENCODING 217
SWIDTH 786 0
DWIDTH 12 0
BBX 11 14 0 0
BITMAP
0600
0900
0600
0000
fbe0
71c0
71c0
71c0
71c0
71c0
71c0
71c0
3180
1f00
ENDCHAR
STARTCHAR Uacute
ENCODING 218
SWIDTH 786 0
DWIDTH 12 0
BBX 11 12 0 0
BITMAP
0600
0c00
0000
fbe0
71c0
71c0
71c0
71c0
71c0
71c0
3180
1f00
ENDCHAR
STARTCHAR Udoubleacute
ENCODING 219
SWIDTH 786 0
DWIDTH 12 0
BBX 11 13 0 0
BITMAP
0d80
1b00
0000
fbe0
71c0
71c0
71c0
71c0
71c0
71c0
71c0
3180
1f00
ENDCHAR
STARTCHAR Udiaeresis
ENCODING 220
SWIDTH 786 0
DWIDTH 12 0
BBX 11 12 0 0
BITMAP
1b00
1b00
0000
fbe0
71c0
71c0
71c0
71c0
71c0
71c0
3180
1f00
ENDCHAR
STARTCHAR Yacute
ENCODING 221
SWIDTH 617 0
DWIDTH 9 0
BBX 9 12 0 0
BITMAP
0600
0c00
0000
fb80
7100
7100
3a00
3a00
1c00
1c00
1c00
3e00
ENDCHAR
STARTCHAR Tcedilla
ENCODING 222
SWIDTH 624 0
DWIDTH 9 0
BBX 9 13 0 -3
BITMAP
ff80
9c80
9c80
1c00
1c00
1c00
1c00
1c00
1c00
3e00
0800
0400
1c00
ENDCHAR
STARTCHAR ssharp
ENCODING 223
SWIDTH 662 0
DWIDTH 10 0
BBX 10 11 0 0
BITMAP
1e00
3300
7300
7200
7600
7700
7780
73c0
71c0
7580
f700
ENDCHAR
STARTCHAR racute
ENCODING 224
SWIDTH 440 0
DWIDTH 6 0
BBX 6 10 0 0
BITMAP
18
30
00
ec
7c
70
70
70
70
f8
ENDCHAR
STARTCHAR aacute
ENCODING 225
SWIDTH 544 0
DWIDTH 8 0
BBX 7 10 0 0
BITMAP
18
30
00
78
dc
1c
7c
dc
dc
7e
ENDCHAR
STARTCHAR acircumflex
ENCODING 226
SWIDTH 544 0
DWIDTH 8 0
BBX 7 10 0 0
BITMAP
30
58
00
78
dc
1c
7c
dc
dc
7e
ENDCHAR
STARTCHAR abreve
ENCODING 227
SWIDTH 544 0
DWIDTH 8 0
BBX 7 10 1 0
BITMAP
88
70
00
78
dc
1c
7c
dc
dc
7e
ENDCHAR
STARTCHAR adiaeresis
ENCODING 228
SWIDTH 544 0
DWIDTH 8 0
BBX 7 10 0 0
BITMAP
6c
6c
00
78
dc
1c
7c
dc
dc
7e
ENDCHAR
STARTCHAR lacute
ENCODING 229
SWIDTH 309 0
DWIDTH 5 0
BBX 5 14 0 0
BITMAP
30
60
00
f0
70
70
70
70
70
70
70
70
70
f8
ENDCHAR
STARTCHAR cacute
ENCODING 230
SWIDTH 494 0
DWIDTH 7 0
BBX 6 10 0 0
BITMAP
0c
18
00
3c
6c
e4
e0
e0
64
3c
ENDCHAR
STARTCHAR ccedilla
ENCODING 231
SWIDTH 494 0
DWIDTH 7 0
BBX 6 10 0 -3
BITMAP
3c
6c
e4
e0
e0
64
3c
20
10
70
ENDCHAR
STARTCHAR ccaron
ENCODING 232
SWIDTH 494 0
DWIDTH 7 0
BBX 6 10 0 0
BITMAP
34
18
00
3c
6c
e4
e0
e0
64
3c
ENDCHAR
STARTCHAR eacute
ENCODING 233
SWIDTH 519 0
DWIDTH 7 0
BBX 6 10 0 0
BITMAP
18
30
00
38
6c
fc
e0
e0
64
3c
ENDCHAR
STARTCHAR eogonek
ENCODING 234
SWIDTH 519 0
DWIDTH 7 0
BBX 6 10 0 -3
BITMAP
38
6c
fc
e0
e0
64
3c
20
40
70
ENDCHAR
STARTCHAR ediaeresis
ENCODING 235
SWIDTH 519 0
DWIDTH 7 0
BBX 6 10 0 0
BITMAP
d8
d8
00
38
6c
fc
e0
e0
64
3c
ENDCHAR
STARTCHAR ecaron
ENCODING 236
SWIDTH 519 0
DWIDTH 7 0
BBX 6 10 0 0
BITMAP
34
18
00
38
6c
fc
e0
e0
64
3c
ENDCHAR
STARTCHAR iacute
ENCODING 237
SWIDTH 316 0
DWIDTH 5 0
BBX 5 10 0 0
BITMAP
30
60
00
f0
70
70
70
70
70
f8
ENDCHAR
STARTCHAR icircumflex
ENCODING 238
SWIDTH 316 0
DWIDTH 5 0
BBX 5 10 0 0
BITMAP
60
b0
00
f0
70
70
70
70
70
f8
ENDCHAR
STARTCHAR dcaron
ENCODING 239
SWIDTH 822 0
DWIDTH 12 0
BBX 12 12 0 0
BITMAP
0030
0f30
0720
0740
0700
3700
6f00
e700
e700
e700
6700
3f80
ENDCHAR
STARTCHAR dstroke
ENCODING 240
SWIDTH 754 0
DWIDTH 11 0
BBX 11 11 0 0
BITMAP
0f00
0700
3fe0
0700
3700
6f00
e700
e700
e700
6700
3f80
ENDCHAR
STARTCHAR nacute
ENCODING 241
SWIDTH 638 0
DWIDTH 10 0
BBX 10 10 0 0
BITMAP
0600
0c00
0000
f700
7b80
7380
7380
7380
7380
fbc0
ENDCHAR
STARTCHAR ncaron
ENCODING 242
SWIDTH 638 0
DWIDTH 10 0
BBX 10 10 0 0
BITMAP
1a00
0c00
0000
f700
7b80
7380
7380
7380
7380
fbc0
ENDCHAR
STARTCHAR oacute
ENCODING 243
SWIDTH 585 0
DWIDTH 9 0
BBX 8 10 0 0
BITMAP
18
30
00
3c
66
e7
e7
e7
66
3c
ENDCHAR
STARTCHAR ocircumflex
ENCODING 244
SWIDTH 585 0
DWIDTH 9 0
BBX 8 10 0 0
BITMAP
18
2c
00
3c
66
e7
e7
e7
66
3c
ENDCHAR
STARTCHAR odoubleacute
ENCODING 245
SWIDTH 585 0
DWIDTH 9 0
BBX 8 10 0 0
BITMAP
36
6c
00
3c
66
e7
e7
e7
66
3c
ENDCHAR
STARTCHAR odiaeresis
ENCODING 246
SWIDTH 585 0
DWIDTH 9 0
BBX 8 10 0 0
BITMAP
6c
6c
00
3c
66
e7
e7
e7
66
3c
ENDCHAR
STARTCHAR division
ENCODING 247
SWIDTH 600 0
DWIDTH 9 0
BBX 8 7 0 0
BITMAP
18
18
00
ff
00
18
18
ENDCHAR
STARTCHAR rcaron
ENCODING 248
SWIDTH 440 0
DWIDTH 6 0
BBX 6 10 0 0
BITMAP
68
30
00
ec
7c
70
70
70
70
f8
ENDCHAR
STARTCHAR uring
ENCODING 249
SWIDTH 629 0
DWIDTH 10 0
BBX 10 11 0 0
BITMAP
0c00
1200
0c00
0000
f780
7380
7380
7380
7380
7780
3bc0
ENDCHAR
STARTCHAR uacute
ENCODING 250
SWIDTH 629 0
DWIDTH 10 0
BBX 10 10 0 0
BITMAP
0c00
1800
0000
f780
7380
7380
7380
7380
7780
3bc0
ENDCHAR
STARTCHAR udoubleacute
ENCODING 251
SWIDTH 629 0
DWIDTH 10 0
BBX 10 10 0 0
BITMAP
1b00
3600
0000
f780
7380
7380
7380
7380
7780
3bc0
ENDCHAR
STARTCHAR udiaeresis
ENCODING 252
SWIDTH 629 0
DWIDTH 10 0
BBX 10 10 0 0
BITMAP
3600
3600
0000
f780
7380
7380
7380
7380
7780
3bc0
ENDCHAR
STARTCHAR yacute
ENCODING 253
SWIDTH 524 0
DWIDTH 7 0
BBX 8 13 -1 -3
BITMAP
0c
18
00
f7
72
72
3c
3c
18
18
10
f0
60
ENDCHAR
STARTCHAR tcedilla
ENCODING 254
SWIDTH 370 0
DWIDTH 5 0
BBX 5 12 0 -3
BITMAP
30
70
f8
70
70
70
70
70
38
20
10
70
ENDCHAR
STARTCHAR abovedot
ENCODING 255
SWIDTH 430 0
DWIDTH 6 0
BBX 2 2 2 8
BITMAP
c0
c0
ENDCHAR
ENDFONT
